<svg width="1439" height="425" viewBox="0 0 1439 425" fill="none" xmlns="http://www.w3.org/2000/svg">
    <mask id="mask0_1642_1081" style="mask-type:alpha" maskUnits="userSpaceOnUse" x="0" y="0" width="1439" height="425">
        <rect width="1439" height="425" transform="matrix(1 0 0 -1 0 425)" fill="#C4C4C4"/>
    </mask>
    <g mask="url(#mask0_1642_1081)">
        <mask id="mask1_1642_1081" style="mask-type:alpha" maskUnits="userSpaceOnUse" x="1" y="-258" width="1439"
              height="683">
            <rect x="1" y="-257.78" width="1439" height="682.78" fill="#C4C4C4"/>
        </mask>
        <g mask="url(#mask1_1642_1081)">
            <path d="M-48.3084 -207.445H1390.6C1390.6 -207.445 1724.34 420.146 1390.6 232.237C1056.85 44.3284 970.417 548.49 668.075 335.403C365.733 122.316 218.488 709.994 -48.3084 232.237C-315.105 -245.519 -48.3084 -207.445 -48.3084 -207.445Z"
                  fill="#C2BD56"/>
            <path d="M11.6506 -250.083H1450.56C1450.56 -250.083 1784.3 377.508 1450.56 189.6C1116.81 1.6907 1030.38 505.852 728.034 292.765C425.692 79.6784 278.447 667.356 11.6506 189.6C-255.146 -288.157 11.6506 -250.083 11.6506 -250.083Z"
                  fill="url(#paint0_linear_1642_1081)"/>
        </g>
    </g>
    <defs>
        <linearGradient id="paint0_linear_1642_1081" x1="746.481" y1="-250.803" x2="746.481" y2="487.357"
                        gradientUnits="userSpaceOnUse">
            <stop stop-color="#677D2A"/>
            <stop offset="1" stop-color="#C2BD56"/>
        </linearGradient>
    </defs>
</svg>
